<svg xmlns="http://www.w3.org/2000/svg" viewbox="0 0 19 19" height="19" width="19" stroke="#234" fill="none" stroke-linecap="round" stroke-linejoin="round">
<g transform="translate(.5 .5)">
<path d="M16 1c.75 0 3 1.5 1.5 4.5c-2.25 4.5 -2.25 4.5 -5 4.5h-7c-2.75 0-2.75 0-5-4.5c-1.5-3 .75-4.5 1.5-4.5zM3 4h0m3 0h0m3 0h0m3 0h0m3 0h0m-10.5 3h0m3 0h0m3 0h0m3 0h0M0 17v-4h1a1 1 0 0 1 0 2h-.75.75l1 2m2 0h1a1 1 0 0 0 1-1c0-1.5-2-.5-2-2a1 1 0 0 1 1-1h1m2 0h1a1 1 0 0 1 1 1c0 1.25-2 .75-2 2.5v.5h2m2 0h1a1 1 0 0 0 0-2a1 1 0 0 0 0-2h-1m4 0h1a1 1 0 0 1 1 1c0 1.25-2 .75-2 2.5v.5h2" />
</g>
</svg>